<?xml version="1.0" encoding="UTF-8" standalone="no" ?>
<!DOCTYPE svg PUBLIC "-//W3C//DTD SVG 1.1//EN" "http://www.w3.org/Graphics/SVG/1.1/DTD/svg11.dtd">
<svg xmlns="http://www.w3.org/2000/svg" xmlns:xlink="http://www.w3.org/1999/xlink" version="1.1" width="1080" height="1080" viewBox="0 0 1080 1080" xml:space="preserve">
<desc>Created with Fabric.js 4.2.0</desc>
<defs>
</defs>
<g transform="matrix(1 0 0 1 540 540)" id="08739714-a9c3-4645-8500-9e8a73e5bd63"  >
</g>
<g transform="matrix(1 0 0 1 540 540)" id="0d459fa3-94b6-40c7-a82f-a7bf06728d24"  >
<rect style="stroke: none; stroke-width: 1; stroke-dasharray: none; stroke-linecap: butt; stroke-dashoffset: 0; stroke-linejoin: miter; stroke-miterlimit: 4; fill: rgb(255,255,255); fill-rule: nonzero; opacity: 1;" vector-effect="non-scaling-stroke"  x="-540" y="-540" rx="0" ry="0" width="1080" height="1080" />
</g>
<g transform="matrix(1 0 0 1 540.5 540.5)" style="" id="83438f56-3d95-43a0-bc18-056b842ec590"  >
		<text xml:space="preserve" font-family="Raleway" font-size="105" font-style="normal" font-weight="900" style="stroke: none; stroke-width: 1; stroke-dasharray: none; stroke-linecap: butt; stroke-dashoffset: 0; stroke-linejoin: miter; stroke-miterlimit: 4; fill: rgb(0,0,0); fill-rule: nonzero; opacity: 1; white-space: pre;" ><tspan x="-272.27" y="32.98" >SpaceTask</tspan></text>
</g>
<g transform="matrix(1.03 0 0 1.03 863.21 540)" id="4f0abb8b-6d45-4eec-96f0-d9c00f3e8bed"  >
<path style="stroke: rgb(0,0,0); stroke-width: 0; stroke-dasharray: none; stroke-linecap: butt; stroke-dashoffset: 0; stroke-linejoin: miter; stroke-miterlimit: 4; fill: rgb(101,101,101); fill-rule: nonzero; opacity: 1;" vector-effect="non-scaling-stroke"  transform=" translate(-50, -50)" d="M 50 92.875 C 26.358 92.875 7.125 73.642 7.125 50 C 7.125 26.358000000000004 26.358 7.125 50 7.125 C 73.642 7.125 92.875 26.358 92.875 50 C 92.875 73.642 73.642 92.875 50 92.875 z M 50 9.125 C 27.461 9.125 9.125 27.461 9.125 50 C 9.125 72.538 27.461 90.875 50 90.875 C 72.538 90.875 90.875 72.538 90.875 50 C 90.875 27.461 72.538 9.125 50 9.125 z" stroke-linecap="round" />
</g>
<g transform="matrix(-0.51 0 0 0.51 861.88 540)"  >
<g style="" vector-effect="non-scaling-stroke"   >
		<g transform="matrix(1 0 0 1 -23.01 1.44)"  >
<path style="stroke: none; stroke-width: 1; stroke-dasharray: none; stroke-linecap: butt; stroke-dashoffset: 0; stroke-linejoin: miter; stroke-miterlimit: 4; fill: rgb(43,154,202); fill-rule: nonzero; opacity: 1;" vector-effect="non-scaling-stroke"  transform=" translate(-26.99, -51.44)" d="M 17.167 17.104 C 19.436 16.122999999999998 21.89 15.937 24.470000000000002 16.491 L 36.80500000000001 85.472 C 34.534000000000006 86.884 32.07900000000001 87.06599999999999 29.439000000000007 86.085 C 25.328 63.133 21.277 40.119 17.167 17.104 z" stroke-linecap="round" />
</g>
		<g transform="matrix(1 0 0 1 5 -15.8)"  >
<polygon style="stroke: none; stroke-width: 1; stroke-dasharray: none; stroke-linecap: butt; stroke-dashoffset: 0; stroke-linejoin: miter; stroke-miterlimit: 4; fill: rgb(43,154,202); fill-rule: nonzero; opacity: 1;" vector-effect="non-scaling-stroke"  points="-22.68,-18.26 -20.77,-19.18 -18.93,-19.85 -17.09,-20.34 -15.31,-20.65 -13.53,-20.84 -11.81,-20.9 -10.09,-20.77 -8.38,-20.53 -6.66,-20.22 -5,-19.79 -3.35,-19.3 -1.69,-18.75 -0.09,-18.2 1.56,-17.58 3.16,-16.91 4.76,-16.29 6.35,-15.74 7.95,-15.13 9.54,-14.64 11.14,-14.21 12.74,-13.9 14.33,-13.72 15.93,-13.65 17.58,-13.78 19.18,-14.08 20.84,-14.64 22.31,-15.31 27.83,19.98 27.83,19.98 26.54,20.47 25.26,20.77 24.03,20.9 22.8,20.9 21.57,20.83 20.28,20.59 19,20.28 17.71,19.85 16.36,19.36 15.01,18.81 13.6,18.2 12.18,17.52 10.71,16.85 9.18,16.17 7.64,15.5 6.05,14.88 4.39,14.27 2.73,13.78 0.95,13.35 -0.83,12.98 -2.73,12.8 -4.63,12.8 -6.6,12.92 -8.62,13.23 -10.71,13.78 -12.86,14.51 -15.07,15.44 -17.28,16.66 -19.55,18.13 -21.39,19.49 -27.83,-14.76 -26.67,-15.68 -24.64,-17.09 " />
</g>
</g>
</g>
</svg>